# xmcd
#
# Track frame offsets: 
#        150
#        23407
#        49475
#        69258
#        98196
#        123178
#        140674
#        155491
#        177353
#
# Disc length: 2725 seconds
#
# Revision: 1
# Processed by: cddbd v1.5.2PL0 Copyright (c) Steve Scherf et al.
# Submitted via: ExactAudioCopy v1.0b1
#
DISCID=740aa309
DTITLE=Second Image - Second Image
DYEAR=1983
DGENRE=Funk
TTITLE0=Can't Keep Holding On '83
TTITLE1=Special Lady
TTITLE2=It's All Been Said And Done
TTITLE3=Life Is What You Make It
TTITLE4=Is It Me
TTITLE5=Beter Take Time
TTITLE6=Star
TTITLE7=Love Turns Me Upside Down
TTITLE8=What's Happening
EXTD=
EXTT0=
EXTT1=
EXTT2=
EXTT3=
EXTT4=
EXTT5=
EXTT6=
EXTT7=
EXTT8=
PLAYORDER=
